<svg viewBox="0 0 48 49" version="1.1" xmlns="http://www.w3.org/2000/svg">
  
  <g>
    <g id="Layer_1">
      <g data-name="Layer_1" id="Layer_1-2">
        <g id="Layer_1-2">
          <path d="M42.6,1.3H14.7c-2.6,0-4.7,2.1-4.7,4.7v4.7h-4.7c-2.6,0-4.7,2.1-4.7,4.7v32.6l9.3-9.3h23.3c2.6,0,4.7-2.1,4.7-4.7v-4.7l9.3,9.3V5.9c0-2.6-2-4.6-4.6-4.6h0ZM14.7,26.9c-1.3,0-2.3-1-2.3-2.3V5.9c0-1.3,1-2.3,2.3-2.3h28c1.3,0,2.3,1,2.3,2.3v27l-5.3-5.3-.7-.7s-24.3,0-24.3,0ZM35.8,33.9c0,1.3-1.2,2.3-2.5,2.3H9.1l-.7.7-5.3,5.3V15.2c0-1.3,1-2.3,2.3-2.3h4.7v11.6c0,2.6,2.1,4.7,4.7,4.7h21v4.7h0Z"></path>
        </g>
      </g>
    </g>
  </g>
</svg>