<?xml version="1.0" encoding="utf-8"?>
<!-- Generator: Adobe Illustrator 23.0.1, SVG Export Plug-In . SVG Version: 6.00 Build 0)  -->
<svg version="1.1" id="Ebene_1" xmlns="http://www.w3.org/2000/svg" xmlns:xlink="http://www.w3.org/1999/xlink" x="0px" y="0px"
	 viewBox="0 0 179.6 135.2" style="enable-background:new 0 0 179.6 135.2;" xml:space="preserve">
<style type="text/css">
	.st0{fill:#00357B;}
	.st1{fill:#FFCC00;}
</style>
<rect x="1.9" y="1.6" class="st0" width="175.7" height="131.9"/>
<g>
	<polygon class="st1" points="82.4,23.9 87.5,23.9 89.4,18.9 91.1,23.9 96.5,23.9 92.3,27.1 93.8,32.4 89.3,29.1 85,32.3 86.6,27.3 
			"/>
	<polygon class="st1" points="61.7,29.7 66.9,29.7 68.7,24.7 70.5,29.7 75.8,29.7 71.6,32.9 73.2,38.3 68.7,34.9 64.4,38.1 66,33.1 
			"/>
	<polygon class="st1" points="103.8,29.7 108.9,29.7 110.8,24.7 112.5,29.7 117.9,29.7 113.7,32.9 115.2,38.3 110.7,34.9 
		106.4,38.1 108,33.1 	"/>
	<polygon class="st1" points="61.7,101.8 66.9,101.8 68.7,96.8 70.5,101.8 75.8,101.8 71.6,105 73.2,110.3 68.7,107 64.4,110.2 
		66,105.2 	"/>
	<polygon class="st1" points="103.8,101.8 108.9,101.8 110.8,96.8 112.5,101.8 117.9,101.8 113.7,105 115.2,110.3 110.7,107 
		106.4,110.2 108,105.2 	"/>
	<polygon class="st1" points="46.7,44.7 51.9,44.7 53.7,39.8 55.5,44.7 60.8,44.7 56.6,47.9 58.1,53.3 53.6,49.9 49.4,53.1 51,48.2 
			"/>
	<polygon class="st1" points="118.8,44.7 124,44.7 125.8,39.8 127.6,44.7 132.9,44.7 128.7,47.9 130.2,53.3 125.7,49.9 121.4,53.1 
		123.1,48.2 	"/>
	<polygon class="st1" points="46.7,86.8 51.9,86.8 53.7,81.8 55.5,86.8 60.8,86.8 56.6,90 58.1,95.3 53.6,92 49.4,95.2 51,90.2 	"/>
	<polygon class="st1" points="118.8,86.8 124,86.8 125.8,81.8 127.6,86.8 132.9,86.8 128.7,90 130.2,95.3 125.7,92 121.4,95.2 
		123.1,90.2 	"/>
	<polygon class="st1" points="40.7,65.8 45.9,65.8 47.7,60.8 49.5,65.8 54.8,65.8 50.6,69 52.1,74.3 47.6,70.9 43.3,74.1 45,69.2 	
		"/>
	<polygon class="st1" points="124.8,65.8 130,65.8 131.8,60.8 133.6,65.8 138.9,65.8 134.7,69 136.2,74.3 131.7,70.9 127.5,74.1 
		129.1,69.2 	"/>
	<polygon class="st1" points="82.4,107.7 87.5,107.7 89.4,102.7 91.1,107.7 96.5,107.7 92.3,110.9 93.8,116.2 89.3,112.9 85,116.1 
		86.6,111.1 	"/>
</g>
</svg>
