<svg xmlns="http://www.w3.org/2000/svg" fill="none" viewBox="0 0 417 92" height="92" width="417">
<path fill="#3F3F3F" d="M0 34.2378C0 13.3436 10.5916 0.844116 28.3985 0.844116C46.2055 0.844116 56.7971 14.4074 56.7971 34.2378C56.7971 54.0683 46.6911 67.8166 28.2829 67.8166C9.87474 67.8166 0 54.7389 0 34.2378ZM44.9682 34.3419C44.9682 19.6917 39.6724 11.2392 28.3985 11.2392C17.1247 11.2392 11.8289 18.9401 11.8289 34.261C11.8289 49.5819 17.4253 57.4793 28.3985 57.4793C39.3718 57.4793 44.9682 49.2928 44.9682 34.3766V34.3419Z"></path>
<path fill="#3F3F3F" d="M103.673 1.89636H115.317V66.7644H103.743L76.7779 22.3974V66.7644H65.134V1.89636H76.5929L103.639 46.0667V1.89636H103.673Z"></path>
<path fill="#3F3F3F" d="M136.801 56.2768H171.281V66.7528H125.076V1.89636H170.981V12.3724H136.801V28.5605H165.569V39.0365H136.801V56.2768Z"></path>
<path fill="#3F3F3F" d="M220.262 66.7991L205.727 41.9735H191.979V66.7991H180.219V1.89636H208.433C221.615 1.89636 230.368 9.89791 230.368 21.8424C230.368 33.7869 225.639 37.1633 217.741 40.135L233.71 66.7991H220.227H220.262ZM191.944 12.4071V31.4512H208.213C214.862 31.4512 218.504 27.9939 218.504 22.0274C218.504 16.0609 214.862 12.4071 208.213 12.4071H191.944Z"></path>
<path stroke-miterlimit="10" stroke-width="2.28946" stroke="#3F3F3F" fill="#3F3F3F" d="M229.721 84.0741C229.721 80.5589 232.149 78.2579 235.178 78.2579C239.549 78.2579 240.393 83.23 244.151 83.23C246.822 83.23 251.91 79.9577 259.796 70.2564C256.882 46.4946 254.095 27.2192 251.794 18.1192C249.609 9.51633 248.881 8.30223 243.307 12.1758L240.151 14.3612L238.936 12.5458C245.481 5.51556 251.066 1.27197 255.182 1.27197C258.339 1.27197 260.27 2.7289 261.97 9.87478C265.728 26.2479 267.786 44.0664 269 57.1556H269.358C279.06 42.9679 287.177 26.6063 287.177 17.3907C287.177 12.4186 282.575 11.2045 282.575 6.60248C282.575 3.4458 285.246 1.14478 288.634 1.14478C292.75 1.14478 295.549 4.05863 295.549 8.9035C295.549 19.8189 284.633 42.9794 270.445 62.7405C257.356 81.1718 246.926 90.5031 237.954 90.5031C232.496 90.5031 229.709 87.832 229.709 84.0741H229.721Z"></path>
<path stroke-miterlimit="10" stroke-width="2.28946" stroke="#3F3F3F" fill="#3F3F3F" d="M295.803 41.6381C295.803 15.3325 314.836 1.14478 329.266 1.14478C343.697 1.14478 352.057 12.7886 352.057 25.6351C352.057 52.6692 333.024 66.4984 318.709 66.4984C303.307 66.4984 295.792 54.8546 295.792 41.6381H295.803ZM340.413 21.2758C340.413 10.1176 336.412 4.65991 329.012 4.65991C315.795 4.65991 307.435 23.334 307.435 46.2518C307.435 57.5256 311.078 62.9833 318.709 62.9833C332.284 62.9833 340.413 43.5807 340.413 21.2758Z"></path>
<path stroke-miterlimit="10" stroke-width="2.28946" stroke="#3F3F3F" fill="#3F3F3F" d="M358 55.9531C358 53.5249 358.486 49.1656 359.7 43.9508L366.129 15.9454C366.372 14.6156 366.73 13.2743 366.73 11.7018C366.73 8.9151 364.915 8.78791 360.059 12.1874L356.902 14.3728L355.688 12.5574C363.331 4.91433 368.419 1.28357 373.633 1.28357C377.033 1.28357 378.605 4.31306 378.605 7.71256C378.605 11.1121 378.004 13.6559 377.149 17.4139L371.332 43.1182C368.546 55.2477 369.147 58.3929 373.032 58.3929C379.218 58.3929 388.064 49.5472 394.736 41.9041L402.98 3.11051H414.497L403.951 51.9754C403.709 53.3052 403.35 54.6465 403.35 56.219C403.35 59.0057 405.894 58.7629 410.508 55.9762L414.023 53.918L415.237 55.7334C408.322 62.1624 401.778 66.6488 396.69 66.6488C393.66 66.6488 391.845 63.7349 391.845 60.8326C391.845 57.4331 393.302 51.5014 394.516 47.489H393.915C384.699 58.4044 376.339 66.6488 367.482 66.6488C361.18 66.6488 358.023 62.0352 358.023 55.9762L358 55.9531Z"></path>
</svg>
