<svg viewBox="0 0 68 39" version="1.1" xmlns="http://www.w3.org/2000/svg">
  <defs>
    <style>
      .cls-1 {
        fill: none;
        stroke: #000;
        stroke-linecap: round;
        stroke-linejoin: round;
        stroke-width: 1.8px;
      }
    </style>
  </defs>
  
  <g>
    <g id="Layer_1">
      <g data-name="Layer_1" id="Layer_1-2">
        <path d="M18.8,37.9c3,0,5.4-2.4,5.4-5.4s-2.4-5.4-5.4-5.4-5.4,2.4-5.4,5.4,2.4,5.4,5.4,5.4Z" class="cls-1"></path>
        <path d="M55.7,37.9c3,0,5.4-2.4,5.4-5.4s-2.4-5.4-5.4-5.4-5.4,2.4-5.4,5.4,2.4,5.4,5.4,5.4Z" class="cls-1"></path>
        <path d="M64.4,31.4c1.2,0,2.2-1,2.2-2.2v-10.9c0-.6-.2-1.2-.6-1.7l-8.3-10.1c-.5-.6-1.3-1-2.1-1h-9.6v25.9h1.1" class="cls-1"></path>
        <path d="M50.4,18.5h11.5l-7.1-8.6h-4.4v8.6h0Z" class="cls-1"></path>
        <path d="M66.6,22.8h-4.3v4.3h4.3" class="cls-1"></path>
        <path d="M45.9,31.4h-17.4" class="cls-1"></path>
        <path d="M6.9,18.5v13h2.2" class="cls-1"></path>
        <path d="M46,5.5V1.2H6.9v3.2" class="cls-1"></path>
        <path d="M1.4,14.2h7.6" class="cls-1"></path>
        <path d="M4.7,8.8h8.7" class="cls-1"></path>
      </g>
    </g>
  </g>
</svg>